<svg width="587" height="608" viewBox="0 0 587 608" fill="none" xmlns="http://www.w3.org/2000/svg">
<g filter="url(#filter0_d_4_11)">
<path fill-rule="evenodd" clip-rule="evenodd" d="M75.9206 359.464L56.2148 324.146C56.2148 324.146 -5.08557 366.486 -38.4129 456.176L-36.0054 459.081L47.6187 385.859L52.9235 391.786L75.9206 359.464Z" fill="url(#paint0_linear_4_11)"/>
<path fill-rule="evenodd" clip-rule="evenodd" d="M166.588 469.186L198.495 495.831C198.495 495.831 145.412 548.087 51.1263 564.22L48.7188 561.315L136.195 492.741L131.388 486.467L166.588 469.186Z" fill="url(#paint1_linear_4_11)"/>
<path fill-rule="evenodd" clip-rule="evenodd" d="M492.189 108.05C525.06 147.714 480.654 289.283 387.38 358.252C294.106 427.22 129.123 494.787 129.123 494.787L86.5025 444.386L44.9077 393.167C44.9077 393.167 141.998 243.677 227.006 164.734C312.014 85.7918 459.543 68.6571 492.189 108.05Z" fill="url(#paint2_radial_4_11)"/>
<path fill-rule="evenodd" clip-rule="evenodd" d="M129.059 494.709C129.059 494.709 86.2621 432.595 44.8432 393.089C44.8432 393.089 86.2395 454.501 129.059 494.709Z" fill="#31165F"/>
<path fill-rule="evenodd" clip-rule="evenodd" d="M495.976 194.783C495.976 194.783 467.275 123.83 400.456 89.0065C400.456 89.0065 467.97 79.5757 492.19 108.05C513.849 133.909 495.976 194.783 495.976 194.783Z" fill="url(#paint3_radial_4_11)"/>
<path d="M400.154 89.5506C462.869 121.437 495.111 194.291 495.35 194.975L496.507 194.474C496.181 193.764 463.722 120.371 400.694 88.3843L400.154 89.5506Z" fill="#53345F"/>
<path fill-rule="evenodd" clip-rule="evenodd" d="M500.083 124.017L473.967 95.5464C473.967 95.5464 497.23 101.683 500.083 124.017Z" fill="#53345F"/>
<path fill-rule="evenodd" clip-rule="evenodd" d="M498.023 118.765C494.334 112.499 489.819 106.759 484.599 101.697C484.599 101.697 501.563 93.1591 506.206 97.7729C510.848 102.387 498.023 118.765 498.023 118.765Z" fill="url(#paint4_linear_4_11)"/>
<path style="mix-blend-mode:multiply" opacity="0.5" fill-rule="evenodd" clip-rule="evenodd" d="M235.171 446.528C235.171 446.528 192.326 337.445 118.753 288.977C88.4899 328.301 44.9077 393.167 44.9077 393.167C44.9077 393.167 82.4642 427.38 129.123 494.787C129.059 494.709 185.18 474.89 235.171 446.528Z" fill="url(#paint5_radial_4_11)"/>
<path style="mix-blend-mode:multiply" opacity="0.5" fill-rule="evenodd" clip-rule="evenodd" d="M430.47 164.784C457.335 202.892 435.663 263.845 399.65 296.466C363.637 329.088 312.622 313.967 283.667 276.775C254.712 239.583 254.772 188.832 299.098 159.088C339.162 132.224 400.639 122.504 430.47 164.784Z" fill="url(#paint6_radial_4_11)"/>
<path fill-rule="evenodd" clip-rule="evenodd" d="M436.392 159.877C463.257 197.985 441.604 258.921 405.65 291.494C369.695 324.068 318.622 308.995 289.667 271.803C260.711 234.611 260.752 183.876 305.039 154.165C345.103 127.3 406.58 117.58 436.392 159.877Z" fill="#31165F"/>
<path fill-rule="evenodd" clip-rule="evenodd" d="M440.548 156.433C467.413 194.541 445.74 255.493 409.786 288.067C373.831 320.64 322.758 305.567 293.803 268.375C264.847 231.183 264.888 180.448 309.195 150.721C349.239 123.872 410.716 114.152 440.548 156.433Z" fill="url(#paint7_radial_4_11)"/>
<path fill-rule="evenodd" clip-rule="evenodd" d="M425.328 165.06C449.965 198.742 429.657 242.687 401.572 268.118C373.487 293.549 333.568 281.581 310.738 252.413C287.908 223.244 287.876 183.448 322.474 160.264C353.703 139.218 399.619 129.849 425.328 165.06Z" fill="#A6345F"/>
<path fill-rule="evenodd" clip-rule="evenodd" d="M296.326 213.721C297.298 227.735 302.547 241.104 311.365 252.024C333.078 279.766 374.866 292.21 401.582 268.012C410.722 259.755 418.248 249.873 423.776 238.871C434.609 217.283 436.311 191.633 420.364 168.913C396.887 135.446 352.308 144.491 322.545 164.42C303.422 177.23 295.421 195.359 296.326 213.721Z" fill="url(#paint8_linear_4_11)"/>
<path d="M289.49 271.59L290.293 272.559L186.666 358.437L185.863 357.469L289.49 271.59Z" fill="#53345F"/>
<path d="M234.529 446.701L235.54 446.222C182.734 324.486 119.457 288.72 118.83 288.358L118.222 289.482C118.998 289.787 181.895 325.41 234.529 446.701Z" fill="#53345F"/>
<path d="M275.465 425.712L276.714 425.56C276.667 425.108 271.283 378.379 229.56 322.105L228.589 322.909C270.059 378.838 275.419 425.261 275.465 425.712Z" fill="#53345F"/>
<path fill-rule="evenodd" clip-rule="evenodd" d="M101.897 407.909L147.802 372.284L140.797 357.508L93.9687 398.342L101.897 407.909Z" fill="#31165F"/>
<path fill-rule="evenodd" clip-rule="evenodd" d="M121.18 487.06C99.5975 455.914 75.5425 426.557 49.2472 399.273L31.3565 418.51L101.799 499.005L121.18 487.06Z" fill="url(#paint9_radial_4_11)"/>
<path opacity="0.5" fill-rule="evenodd" clip-rule="evenodd" d="M111.338 493.126C107.681 477.934 100.482 463.83 90.3266 451.964C73.4801 432.506 35.519 414.048 35.519 414.048L49.3114 399.351C49.3114 399.351 92.9794 442.677 121.322 487.074L111.338 493.126Z" fill="#31165F"/>
<path d="M391.87 159.466C381.27 158.473 370.574 159.226 360.209 161.693L358.543 151.541C358.543 151.541 375.669 146.202 388.321 152.378L391.87 159.466Z" fill="white"/>
<path d="M384.258 265.642L369.481 268.283L370.822 276.777L382.616 273.896L384.258 265.642Z" fill="white"/>
<path style="mix-blend-mode:multiply" opacity="0.5" fill-rule="evenodd" clip-rule="evenodd" d="M487.33 221.223C487.33 221.223 469.909 140.921 380.215 91.7335L400.392 88.9293C400.392 88.9293 455.399 114.756 495.976 194.783L487.33 221.223Z" fill="url(#paint10_radial_4_11)"/>
<path d="M223.955 336.485C222.502 334.731 222.749 332.127 224.507 330.67C226.266 329.212 228.87 329.453 230.324 331.207C231.778 332.961 231.531 335.565 229.772 337.022C228.013 338.48 225.409 338.239 223.955 336.485Z" fill="url(#paint11_linear_4_11)"/>
<path fill-rule="evenodd" clip-rule="evenodd" d="M225.053 331.328C224.55 331.739 224.179 332.289 223.989 332.91C223.799 333.53 223.797 334.193 223.984 334.813C224.171 335.434 224.538 335.984 225.039 336.395C225.54 336.806 226.152 337.058 226.798 337.121C227.444 337.183 228.094 337.052 228.666 336.744C229.238 336.437 229.706 335.967 230.011 335.393C230.316 334.82 230.444 334.17 230.378 333.525C230.313 332.88 230.058 332.269 229.644 331.77C229.094 331.106 228.302 330.687 227.442 330.604C226.582 330.521 225.723 330.782 225.053 331.328Z" fill="url(#paint12_radial_4_11)"/>
<path d="M239.683 323.451C238.229 321.697 238.476 319.093 240.235 317.636C241.994 316.178 244.598 316.419 246.052 318.173C247.505 319.927 247.258 322.531 245.499 323.988C243.741 325.446 241.137 325.205 239.683 323.451Z" fill="url(#paint13_linear_4_11)"/>
<path fill-rule="evenodd" clip-rule="evenodd" d="M240.839 318.246C240.339 318.66 239.974 319.212 239.788 319.833C239.602 320.453 239.604 321.115 239.795 321.733C239.985 322.352 240.354 322.899 240.857 323.307C241.359 323.715 241.971 323.964 242.616 324.023C243.261 324.083 243.909 323.95 244.479 323.641C245.049 323.333 245.515 322.862 245.819 322.29C246.122 321.717 246.249 321.067 246.183 320.423C246.117 319.78 245.862 319.17 245.449 318.672C244.896 318.004 244.099 317.584 243.235 317.505C242.37 317.425 241.508 317.691 240.839 318.246Z" fill="url(#paint14_radial_4_11)"/>
<path fill-rule="evenodd" clip-rule="evenodd" d="M390.837 281.13C390.199 281.653 389.73 282.353 389.49 283.142C389.25 283.931 389.25 284.772 389.489 285.56C389.729 286.348 390.198 287.046 390.836 287.566C391.474 288.085 392.253 288.403 393.073 288.479C393.894 288.555 394.719 288.385 395.444 287.991C396.169 287.597 396.761 286.997 397.145 286.267C397.529 285.537 397.687 284.71 397.599 283.891C397.512 283.072 397.183 282.298 396.654 281.668C395.952 280.831 394.948 280.306 393.859 280.205C392.77 280.104 391.685 280.437 390.837 281.13Z" fill="#31165F"/>
<path fill-rule="evenodd" clip-rule="evenodd" d="M391.399 281.808C390.895 282.219 390.525 282.77 390.335 283.392C390.145 284.014 390.144 284.677 390.332 285.298C390.521 285.92 390.89 286.47 391.393 286.88C391.896 287.29 392.51 287.541 393.157 287.601C393.804 287.66 394.455 287.526 395.026 287.216C395.597 286.905 396.064 286.432 396.366 285.856C396.668 285.28 396.792 284.628 396.723 283.982C396.653 283.336 396.393 282.727 395.975 282.23C395.422 281.573 394.632 281.161 393.776 281.082C392.92 281.003 392.066 281.263 391.399 281.808Z" fill="url(#paint15_radial_4_11)"/>
<path d="M430.788 243.971C429.334 242.217 429.581 239.614 431.34 238.156C433.098 236.699 435.703 236.939 437.156 238.693C438.61 240.448 438.363 243.051 436.604 244.509C434.846 245.966 432.241 245.726 430.788 243.971Z" fill="#31165F"/>
<path fill-rule="evenodd" clip-rule="evenodd" d="M431.901 238.834C431.397 239.246 431.027 239.797 430.837 240.419C430.647 241.04 430.646 241.704 430.834 242.325C431.023 242.946 431.392 243.497 431.895 243.907C432.398 244.317 433.012 244.568 433.659 244.627C434.306 244.687 434.957 244.553 435.528 244.242C436.1 243.932 436.566 243.458 436.868 242.882C437.17 242.307 437.294 241.654 437.225 241.009C437.155 240.363 436.895 239.753 436.477 239.257C435.928 238.594 435.137 238.177 434.279 238.098C433.421 238.019 432.566 238.284 431.901 238.834Z" fill="url(#paint16_radial_4_11)"/>
<path fill-rule="evenodd" clip-rule="evenodd" d="M330.519 280.906C329.881 281.428 329.412 282.129 329.172 282.917C328.932 283.706 328.932 284.548 329.171 285.335C329.411 286.123 329.88 286.821 330.518 287.341C331.156 287.861 331.935 288.179 332.755 288.254C333.576 288.33 334.401 288.16 335.126 287.766C335.851 287.373 336.443 286.772 336.827 286.042C337.211 285.312 337.369 284.485 337.281 283.666C337.194 282.847 336.865 282.073 336.336 281.443C335.634 280.606 334.63 280.081 333.541 279.98C332.452 279.88 331.367 280.212 330.519 280.906Z" fill="#31165F"/>
<path fill-rule="evenodd" clip-rule="evenodd" d="M331.081 281.584C330.581 281.998 330.215 282.551 330.03 283.173C329.844 283.795 329.847 284.458 330.039 285.077C330.231 285.696 330.602 286.243 331.107 286.65C331.611 287.057 332.225 287.305 332.871 287.362C333.517 287.419 334.166 287.283 334.736 286.971C335.305 286.66 335.77 286.186 336.07 285.61C336.371 285.035 336.494 284.384 336.424 283.739C336.353 283.095 336.093 282.486 335.676 281.99C335.403 281.661 335.067 281.388 334.687 281.189C334.308 280.99 333.893 280.868 333.466 280.83C333.039 280.793 332.608 280.84 332.199 280.969C331.789 281.098 331.41 281.307 331.081 281.584Z" fill="url(#paint17_radial_4_11)"/>
<path fill-rule="evenodd" clip-rule="evenodd" d="M285.879 234.825C285.24 235.348 284.771 236.048 284.531 236.837C284.291 237.626 284.291 238.467 284.53 239.255C284.77 240.042 285.239 240.741 285.877 241.26C286.515 241.78 287.294 242.098 288.115 242.174C288.935 242.25 289.76 242.08 290.485 241.686C291.21 241.292 291.802 240.692 292.186 239.962C292.57 239.232 292.728 238.405 292.641 237.586C292.553 236.767 292.224 235.993 291.695 235.363C290.993 234.526 289.989 234 288.9 233.9C287.811 233.799 286.726 234.132 285.879 234.825Z" fill="#31165F"/>
<path fill-rule="evenodd" clip-rule="evenodd" d="M286.44 235.503C285.936 235.914 285.566 236.466 285.376 237.087C285.186 237.709 285.185 238.372 285.373 238.994C285.562 239.615 285.931 240.165 286.434 240.575C286.937 240.985 287.551 241.236 288.198 241.296C288.845 241.356 289.496 241.222 290.067 240.911C290.639 240.6 291.105 240.127 291.407 239.551C291.709 238.975 291.833 238.323 291.764 237.677C291.694 237.032 291.434 236.422 291.016 235.925C290.463 235.269 289.673 234.856 288.817 234.777C287.961 234.698 287.107 234.959 286.44 235.503Z" fill="url(#paint18_radial_4_11)"/>
<path fill-rule="evenodd" clip-rule="evenodd" d="M287.986 176.823C287.349 177.345 286.88 178.044 286.64 178.832C286.399 179.619 286.398 180.46 286.636 181.247C286.875 182.034 287.341 182.732 287.978 183.252C288.614 183.773 289.391 184.093 290.21 184.171C291.029 184.249 291.854 184.082 292.579 183.692C293.305 183.301 293.898 182.704 294.285 181.977C294.672 181.249 294.834 180.424 294.751 179.606C294.668 178.787 294.344 178.013 293.819 177.38C293.12 176.536 292.113 176.003 291.021 175.899C289.928 175.795 288.837 176.127 287.986 176.823Z" fill="#31165F"/>
<path fill-rule="evenodd" clip-rule="evenodd" d="M288.548 177.501C288.049 177.915 287.683 178.467 287.497 179.087C287.312 179.708 287.314 180.369 287.504 180.988C287.694 181.606 288.064 182.154 288.566 182.561C289.068 182.969 289.68 183.219 290.325 183.278C290.97 183.338 291.619 183.205 292.189 182.896C292.759 182.587 293.225 182.117 293.528 181.544C293.832 180.971 293.958 180.322 293.893 179.678C293.827 179.034 293.572 178.425 293.159 177.927C292.605 177.259 291.809 176.839 290.944 176.759C290.079 176.679 289.218 176.946 288.548 177.501Z" fill="url(#paint19_radial_4_11)"/>
<path fill-rule="evenodd" clip-rule="evenodd" d="M348.726 135.11C348.097 135.632 347.635 136.329 347.401 137.112C347.167 137.895 347.169 138.729 347.409 139.509C347.649 140.289 348.116 140.98 348.749 141.494C349.383 142.009 350.155 142.323 350.968 142.398C351.782 142.474 352.6 142.306 353.319 141.916C354.038 141.527 354.627 140.934 355.009 140.211C355.392 139.488 355.552 138.669 355.469 137.857C355.386 137.045 355.064 136.276 354.543 135.647C353.845 134.805 352.84 134.275 351.749 134.174C350.658 134.074 349.571 134.41 348.726 135.11Z" fill="#31165F"/>
<path fill-rule="evenodd" clip-rule="evenodd" d="M349.288 135.789C348.797 136.202 348.438 136.752 348.259 137.368C348.079 137.984 348.085 138.639 348.277 139.251C348.469 139.862 348.838 140.403 349.337 140.804C349.837 141.205 350.444 141.45 351.083 141.506C351.722 141.563 352.364 141.429 352.928 141.122C353.492 140.814 353.953 140.347 354.252 139.779C354.552 139.211 354.676 138.568 354.611 137.93C354.545 137.292 354.292 136.688 353.883 136.195C353.61 135.865 353.274 135.593 352.894 135.394C352.515 135.195 352.1 135.073 351.673 135.035C351.245 134.998 350.815 135.045 350.406 135.174C349.996 135.303 349.617 135.512 349.288 135.789Z" fill="url(#paint20_radial_4_11)"/>
<path d="M398.088 141.834C396.634 140.08 396.881 137.476 398.64 136.019C400.398 134.561 403.003 134.802 404.456 136.556C405.91 138.31 405.663 140.914 403.904 142.371C402.145 143.829 399.541 143.588 398.088 141.834Z" fill="#31165F"/>
<path fill-rule="evenodd" clip-rule="evenodd" d="M399.201 136.696C398.706 137.107 398.343 137.655 398.159 138.271C397.974 138.887 397.977 139.543 398.165 140.157C398.354 140.77 398.721 141.314 399.219 141.718C399.717 142.123 400.325 142.37 400.965 142.429C401.605 142.488 402.248 142.356 402.814 142.05C403.38 141.744 403.842 141.277 404.143 140.709C404.444 140.14 404.57 139.496 404.505 138.857C404.44 138.218 404.186 137.613 403.777 137.119C403.224 136.462 402.434 136.05 401.578 135.971C400.722 135.892 399.868 136.152 399.201 136.696Z" fill="url(#paint21_radial_4_11)"/>
<path d="M437.624 180.254C436.171 178.499 436.418 175.896 438.176 174.438C439.935 172.981 442.539 173.221 443.993 174.976C445.447 176.73 445.2 179.333 443.441 180.791C441.682 182.248 439.078 182.008 437.624 180.254Z" fill="#31165F"/>
<path fill-rule="evenodd" clip-rule="evenodd" d="M438.738 175.117C438.243 175.527 437.88 176.075 437.696 176.691C437.511 177.307 437.514 177.963 437.702 178.577C437.891 179.19 438.258 179.734 438.756 180.138C439.254 180.543 439.862 180.79 440.502 180.849C441.141 180.909 441.785 180.777 442.351 180.47C442.916 180.164 443.379 179.697 443.68 179.129C443.981 178.56 444.107 177.916 444.042 177.277C443.976 176.638 443.723 176.033 443.313 175.539C442.764 174.877 441.974 174.46 441.116 174.381C440.258 174.301 439.402 174.566 438.738 175.117Z" fill="url(#paint22_radial_4_11)"/>
<path fill-rule="evenodd" clip-rule="evenodd" d="M100.136 545.173L98.1939 542.83L185.783 474.195L187.612 476.599L100.136 545.173Z" fill="#6F2561"/>
<path fill-rule="evenodd" clip-rule="evenodd" d="M73.9756 339.479L75.9988 341.723L-8.3483 414.27L-9.64836 412.701L73.9756 339.479Z" fill="#6F2561"/>
<path fill-rule="evenodd" clip-rule="evenodd" d="M161.031 345.052L154.098 336.686L26.6093 456.452L31.4404 462.281L161.031 345.052Z" fill="url(#paint23_linear_4_11)"/>
<path fill-rule="evenodd" clip-rule="evenodd" d="M161.031 345.052L136.116 375.534L31.4404 462.281L161.031 345.052Z" fill="#FF4C61"/>
<path opacity="0.5" fill-rule="evenodd" clip-rule="evenodd" d="M150.17 340.365L44.843 393.089L62.7223 412.411L41.592 430.347L47.1935 437.106L150.17 340.365Z" fill="#31165F"/>
<path d="M467.005 248.944C467.005 248.944 476.938 242.118 477.799 231.538L473.618 226.967C470.419 233.351 467.558 239.898 465.047 246.582L467.005 248.944Z" fill="white"/>
<g style="mix-blend-mode:soft-light">
<path d="M141.367 270.106L174.091 228.22L172.053 225.76L138.976 267.22L141.367 270.106Z" fill="white"/>
</g>
<path fill-rule="evenodd" clip-rule="evenodd" d="M311.907 111.786C311.907 111.786 302.732 94.4305 294.255 119.652L311.907 111.786Z" fill="url(#paint24_linear_4_11)"/>
<path fill-rule="evenodd" clip-rule="evenodd" d="M456.7 282.313C456.7 282.313 463.912 299.433 446.217 297.763L456.7 282.313Z" fill="url(#paint25_linear_4_11)"/>
<g style="mix-blend-mode:soft-light" opacity="0.5">
<path fill-rule="evenodd" clip-rule="evenodd" d="M118.68 479.103C118.68 479.103 268.773 419.139 369.49 360.891L370.727 366.139C370.727 366.139 220.223 460.582 127.548 492.531L118.68 479.103Z" fill="white"/>
</g>
<g style="mix-blend-mode:soft-light">
<path fill-rule="evenodd" clip-rule="evenodd" d="M182.055 219.333L203.052 194.517L201.126 192.193L180.129 217.009L182.055 219.333Z" fill="white"/>
</g>
<g style="mix-blend-mode:soft-light">
<path fill-rule="evenodd" clip-rule="evenodd" d="M269.749 406.602C269.749 406.602 260.11 371.892 242.364 345.894C242.41 345.791 256.982 374.321 269.749 406.602Z" fill="white"/>
</g>
<g style="mix-blend-mode:soft-light">
<path fill-rule="evenodd" clip-rule="evenodd" d="M279.242 278.906L187.913 353.58C187.913 353.58 219.547 324.685 279.242 278.906Z" fill="white"/>
</g>
<g style="mix-blend-mode:soft-light">
<path fill-rule="evenodd" clip-rule="evenodd" d="M223.69 425.008C223.69 425.008 191.476 349.975 132.152 301.59C132.094 301.638 178.231 335.731 223.69 425.008Z" fill="white"/>
</g>
<path fill-rule="evenodd" clip-rule="evenodd" d="M451.05 213.883C451.05 213.883 440.909 208.404 452.326 190.84C452.838 198.542 452.409 206.28 451.05 213.883Z" fill="white"/>
<g style="mix-blend-mode:soft-light">
<path fill-rule="evenodd" clip-rule="evenodd" d="M288.356 260.736C288.356 260.736 273.049 240.132 275.148 198.995C275.148 198.995 267.18 229.217 288.356 260.736Z" fill="white"/>
</g>
<g style="mix-blend-mode:soft-light">
<path fill-rule="evenodd" clip-rule="evenodd" d="M311.91 253.827C311.91 253.827 288.344 244.281 295.601 218.339C295.617 218.359 294.957 234.358 311.91 253.827Z" fill="white"/>
</g>
<g style="mix-blend-mode:soft-light" opacity="0.36">
<path fill-rule="evenodd" clip-rule="evenodd" d="M275.853 289.359C276.005 290.965 276.655 293.726 274.81 294.7C273.963 295.14 272.988 295.229 272.113 295.595C271.311 295.908 270.551 296.319 269.85 296.817C268.7 297.571 267.367 297.999 265.994 298.053C265.088 297.987 265.191 297.084 265.423 296.337C265.592 295.535 265.971 294.792 266.522 294.185C267.345 293.488 268.091 292.705 268.747 291.851C269.058 291.593 269.073 291.058 269.339 290.707C269.751 290.284 270.206 289.907 270.698 289.581C271.428 289.011 272.318 288.683 273.242 288.643C274.167 288.604 275.08 288.854 275.853 289.359Z" fill="white"/>
<path fill-rule="evenodd" clip-rule="evenodd" d="M266.217 304.368C266.453 304.283 266.66 304.133 266.815 303.935C266.97 303.737 267.066 303.5 267.092 303.251C265.824 301.721 262.307 303.721 262.912 305.637C263.517 307.553 266.109 306.254 266.618 304.853L266.217 304.368Z" fill="white"/>
<path fill-rule="evenodd" clip-rule="evenodd" d="M270.144 348.549C269.874 347.433 269.872 346.324 268.92 345.61C268.124 344.99 267.142 344.653 266.131 344.655C264.935 344.713 263.765 345.025 262.699 345.572C262.122 345.708 261.6 346.015 261.202 346.453C260.624 347.548 260.309 348.761 260.281 349.997C260.254 351.234 260.515 352.458 261.044 353.575C261.452 354.766 261.991 355.908 262.653 356.978C263.215 357.656 263.621 358.463 263.986 359.14C264.251 359.825 264.663 360.443 265.192 360.951C265.752 361.283 266.365 361.515 267.005 361.637C267.831 361.864 268.701 361.882 269.537 361.691C270.373 361.5 271.149 361.105 271.796 360.541C274.145 358.594 273.618 354.164 272.997 351.477C272.637 349.423 271.553 346.139 270.144 348.549Z" fill="white"/>
<path fill-rule="evenodd" clip-rule="evenodd" d="M267.265 338.554C266.778 339.35 266.744 339.704 265.926 339.468C265.636 339.368 265.373 339.202 265.158 338.984C264.942 338.765 264.781 338.5 264.686 338.208C264.283 337.17 264.675 335.113 266.008 335.022C266.692 334.978 268.059 335.086 268.535 335.541C268.938 336.155 269.114 336.891 269.032 337.621C268.949 338.352 268.614 339.031 268.083 339.542L267.265 338.554Z" fill="white"/>
<path fill-rule="evenodd" clip-rule="evenodd" d="M218.99 326.976C218.738 327.373 218.414 327.719 218.035 327.997C217.122 328.753 216.21 329.509 215.297 330.265C213.569 331.698 212.069 333.365 210.341 334.798C209.077 335.807 207.729 336.706 206.311 337.484C205.69 337.999 204.818 338.329 204.065 338.725C203.936 338.57 204.289 338.245 204.377 338.074C204.686 337.459 205.098 336.889 205.336 336.267C205.899 334.852 206.502 333.406 207.184 332.056C207.335 331.812 207.461 331.554 207.562 331.286C207.641 330.919 207.694 330.548 207.721 330.174C207.813 329.522 208.006 328.888 208.293 328.295C209.106 326.967 210.197 325.829 211.49 324.96C211.878 324.638 212.359 324.468 212.767 324.13C213.175 323.792 213.582 323.454 214.01 323.1C215.055 322.528 216.201 322.166 217.384 322.035C218.73 321.801 220.82 321.082 222.036 322.035C222.653 322.503 222.189 323.247 221.787 323.711C221.385 324.175 220.699 324.809 220.181 325.369C219.662 325.929 218.822 327.247 218.99 326.976Z" fill="white"/>
<path fill-rule="evenodd" clip-rule="evenodd" d="M226.057 319.063C226.294 318.441 226.802 317.432 226.12 316.886C225.438 316.341 224.506 317.113 224.066 317.609C223.026 318.765 225.478 319.313 226.233 318.524L226.057 319.063Z" fill="white"/>
<path fill-rule="evenodd" clip-rule="evenodd" d="M208.951 313.637C208.751 314.243 208.347 314.762 207.81 315.106C207.437 315.312 207.001 315.371 206.587 315.274C206.173 315.176 205.81 314.928 205.57 314.577C204.671 313.492 204.314 312.547 205.228 311.398C205.614 311.034 206.072 310.757 206.573 310.585C207.073 310.412 207.605 310.348 208.132 310.396C208.56 310.451 208.953 310.659 209.239 310.981C209.801 311.659 209.591 312.355 209.34 313.119L208.951 313.637Z" fill="white"/>
<path fill-rule="evenodd" clip-rule="evenodd" d="M154.403 317.452C153.905 315.137 153.14 312.887 152.123 310.749C151.15 308.943 149.678 307.483 148.534 305.786C147.052 303.33 145.759 300.765 144.665 298.113C143.703 295.817 142.178 293.8 140.23 292.249C139.43 291.616 138.505 291.157 137.516 290.902C136.526 290.647 135.494 290.603 134.485 290.77C133.278 291.065 132.129 291.564 131.09 292.245C130.643 292.615 130.216 292.969 129.676 293.188C129.355 293.328 129.05 293.504 128.768 293.712C128.341 294.066 128.485 294.24 128.822 294.647C129.35 295.356 130.078 295.89 130.913 296.181C132.364 296.784 133.7 297.633 134.86 298.692C136.001 299.674 137.188 300.553 138.271 301.583L141.523 304.637L144.393 307.192C145.315 308.028 146.134 309.016 147.014 309.92C147.894 310.824 148.346 311.527 149.02 312.341C149.461 312.813 149.874 313.311 150.256 313.832C150.553 314.25 150.88 314.645 151.235 315.013C151.58 315.369 151.897 315.751 152.182 316.156C152.872 316.669 153.617 317.104 154.403 317.452Z" fill="white"/>
<path fill-rule="evenodd" clip-rule="evenodd" d="M152.955 301.24C152.969 301.653 153.048 302.143 152.785 302.458C152.642 302.626 152.471 302.767 152.28 302.877C151.418 303.298 150.384 302.129 149.899 301.584C148.412 299.905 147.621 297.722 147.688 295.477C147.728 294.71 147.943 293.962 148.317 293.289C148.691 292.617 149.214 292.039 149.845 291.599C150.777 291.26 151.784 291.186 152.754 291.386C153.723 291.587 154.618 292.052 155.337 292.732C156.144 293.24 156.816 293.935 157.299 294.757C157.781 295.58 158.058 296.506 158.108 297.459C158.079 298.147 157.815 298.805 157.358 299.322C156.946 299.634 156.513 299.916 156.062 300.168C155.518 300.618 155.257 301.292 154.508 301.455C153.98 301.551 153.436 301.475 152.955 301.24Z" fill="white"/>
<path fill-rule="evenodd" clip-rule="evenodd" d="M144.733 291.556C144.925 291.489 145.094 291.365 145.215 291.2C145.336 291.036 145.404 290.839 145.41 290.635C145.495 290.401 145.487 290.144 145.389 289.916C145.291 289.688 145.11 289.506 144.883 289.406C144.722 289.284 144.537 289.2 144.34 289.158C144.143 289.115 143.939 289.117 143.742 289.162C143.545 289.206 143.36 289.294 143.201 289.417C143.041 289.541 142.91 289.698 142.817 289.877C142.729 290.14 142.709 290.422 142.758 290.695C142.807 290.968 142.924 291.225 143.098 291.441C143.275 291.681 143.529 291.853 143.818 291.928C144.107 292.004 144.413 291.978 144.686 291.856L144.733 291.556Z" fill="white"/>
<path fill-rule="evenodd" clip-rule="evenodd" d="M169.856 249.469C170.136 250.142 170.154 250.896 169.905 251.584C169.845 251.77 169.732 251.936 169.581 252.062C169.43 252.187 169.246 252.267 169.051 252.292C167.754 252.555 166.407 252.335 165.263 251.673C164.894 251.446 164.575 251.145 164.326 250.79C164.076 250.435 163.902 250.033 163.814 249.608C163.761 248.815 163.843 248.018 164.055 247.252C164.161 246.584 164.301 245.923 164.476 245.27C164.527 244.698 164.758 244.158 165.137 243.726C165.516 243.295 166.022 242.995 166.582 242.871C167.198 242.798 167.823 242.881 168.398 243.112C168.973 243.343 169.48 243.715 169.873 244.194C170.341 244.892 170.633 245.691 170.725 246.526C170.941 247.458 171.116 248.065 169.856 249.469Z" fill="white"/>
<path fill-rule="evenodd" clip-rule="evenodd" d="M168.911 255.838C168.472 255.37 167.941 254.998 167.351 254.746C167.137 254.923 166.812 254.768 166.621 255.09C166.429 255.412 166.978 256.035 167.238 256.309C167.559 256.658 167.996 256.876 168.468 256.924C168.565 256.843 169.41 256.993 169.175 256.631L168.911 255.838Z" fill="white"/>
<path fill-rule="evenodd" clip-rule="evenodd" d="M176.711 323.858C176.404 324.635 176.056 325.479 175.021 325.455C174.554 325.347 174.128 325.109 173.793 324.767C173.458 324.426 173.227 323.996 173.129 323.528C173.011 323.07 172.861 322.573 173.198 322.228C173.535 321.884 174.014 321.553 174.383 321.247C175.315 320.474 175.188 318.978 176.752 319.087C177.126 319.12 177.487 319.237 177.809 319.427C178.131 319.618 178.407 319.878 178.615 320.189C179.211 321.264 178.625 322.533 178.102 323.522L176.711 323.858Z" fill="white"/>
<path fill-rule="evenodd" clip-rule="evenodd" d="M204.272 426.04C204.894 427.272 205.165 428.651 205.056 430.029L204.629 430.383C204.421 430.814 204.122 431.195 203.754 431.5C203.385 431.806 202.955 432.028 202.493 432.153C199.497 432.806 197.936 430.408 196.318 428.417C194.701 426.425 192.105 423.807 195.807 422.307C197.737 421.27 199.923 420.808 202.105 420.975C203.098 421.263 203.157 421.769 203.454 422.602C203.948 423.706 204.241 424.89 204.32 426.098L204.272 426.04Z" fill="white"/>
<path fill-rule="evenodd" clip-rule="evenodd" d="M180.889 404.582C181.199 403.77 181.904 402.369 181.327 401.475C180.75 400.581 180.243 400.838 179.492 400.644C177.836 400.187 175.992 400.016 175.48 402.205C175.413 402.777 175.479 403.357 175.673 403.899C175.866 404.441 176.182 404.93 176.596 405.33C177.307 405.95 179.172 406.462 179.782 405.499L180.889 404.582Z" fill="white"/>
<path fill-rule="evenodd" clip-rule="evenodd" d="M282.376 149.621C282.208 150.371 281.84 151.062 281.311 151.621C280.783 152.18 280.113 152.585 279.373 152.795C277.917 153.659 276.274 154.158 274.584 154.248C272.291 154.09 271.222 152.167 269.624 150.911C269.033 150.58 268.542 150.097 268.201 149.512C267.86 148.927 267.682 148.262 267.686 147.584C267.683 145.799 268.015 144.028 268.664 142.363C269.83 139.765 271.547 137.451 273.696 135.58C275.844 133.71 278.373 132.327 281.106 131.529C284.471 130.57 288.615 129.88 291.687 132.006C293 132.864 294.052 134.065 294.728 135.481C295.404 136.896 295.679 138.47 295.522 140.033C295.248 141.579 294.61 143.038 293.66 144.291C292.711 145.544 291.477 146.553 290.062 147.237L288.007 148.156C287.227 148.687 286.499 149.291 285.832 149.958C284.943 150.466 283.907 150.638 282.376 149.621Z" fill="white"/>
<path fill-rule="evenodd" clip-rule="evenodd" d="M279.783 159.218C277.276 158.682 277.663 158.754 275.917 159.809C275.237 160.372 274.777 160.133 274.249 160.799C273.952 161.333 273.822 161.943 273.876 162.551C273.93 163.159 274.165 163.736 274.551 164.207C275.081 164.847 277.197 164.792 277.943 164.664C278.386 164.591 278.798 164.388 279.127 164.081C279.456 163.774 279.686 163.376 279.788 162.938L279.783 159.218Z" fill="white"/>
<path fill-rule="evenodd" clip-rule="evenodd" d="M408.168 313.385C407.102 314.825 405.879 316.59 403.707 315.906C403.021 315.49 402.463 314.893 402.092 314.181C401.721 313.469 401.553 312.669 401.604 311.867C401.725 309.334 402.645 306.902 404.232 304.92C405.764 303.291 409.274 303.812 410.768 305.22C413.773 308.055 410.137 313.943 407.913 316.08L408.168 313.385Z" fill="white"/>
<path fill-rule="evenodd" clip-rule="evenodd" d="M395.281 327.79C395.794 327.658 397.524 327.532 397.897 326.994C398.27 326.456 397.912 326.459 397.99 326.198C398.193 325.784 398.3 325.329 398.304 324.868C398.307 324.407 398.207 323.952 398.01 323.535C397.596 322.697 396.912 322.023 396.068 321.621C395.224 321.219 394.269 321.112 393.355 321.317C392.735 321.349 392.148 321.609 391.707 322.047C391.266 322.485 391.002 323.07 390.965 323.689C390.863 324.519 391.085 325.355 391.585 326.024C392.084 326.694 392.823 327.144 393.648 327.281L395.281 327.79Z" fill="white"/>
<path fill-rule="evenodd" clip-rule="evenodd" d="M108.092 328.716C106.584 331.548 104.189 333.808 101.274 335.151C99.4605 336.164 97.2097 337.637 95.1304 336.551C90.2893 334.029 96.1997 323.969 98.2051 320.935C99.9997 318.334 102.33 316.147 105.039 314.52C107.203 313.252 109.744 312.79 112.212 313.215C113.268 313.809 114.086 314.751 114.526 315.88C114.966 317.009 115.003 318.257 114.629 319.412C113.44 324.578 108.836 327.479 106.029 331.602L108.092 328.716Z" fill="white"/>
<path fill-rule="evenodd" clip-rule="evenodd" d="M110.341 330.282C111.065 331.294 111.634 332.407 112.031 333.586C112.109 334.273 112.224 335.321 111.812 335.891C111.475 336.233 111.056 336.484 110.596 336.62C110.135 336.756 109.648 336.772 109.18 336.667C108.85 336.639 108.533 336.53 108.256 336.348C107.98 336.166 107.753 335.918 107.597 335.627C107.444 335.166 107.708 334.457 107.826 333.967C108.064 333.121 108.4 332.306 108.826 331.537C108.974 331.133 109.173 330.748 109.418 330.394C109.942 329.959 110.326 330.066 110.846 329.864L110.341 330.282Z" fill="white"/>
<path fill-rule="evenodd" clip-rule="evenodd" d="M91.5336 349.56L89.8403 348.742C89.316 349.177 88.6178 349.559 88.6856 350.353C88.9591 351.039 89.442 351.622 90.0659 352.018C90.3707 352.223 90.734 352.322 91.1009 352.301C91.4677 352.28 91.8179 352.14 92.0985 351.902C92.7975 351.323 92.543 350.423 92.1298 349.687L91.5336 349.56Z" fill="white"/>
<path fill-rule="evenodd" clip-rule="evenodd" d="M114.246 433.481C114.099 433.846 113.839 434.155 113.504 434.363C113.169 434.57 112.776 434.664 112.384 434.632C111.726 434.63 111.096 434.37 110.629 433.909C110.161 433.448 109.893 432.822 109.881 432.165C109.837 431.052 110.063 429.945 110.538 428.936C111.014 427.928 111.726 427.049 112.613 426.373C113.78 425.765 115.949 426.091 116.186 427.561C116.347 428.379 116.412 429.213 116.379 430.047C116.104 431.327 115.416 432.483 114.421 433.336L114.246 433.481Z" fill="white"/>
<path fill-rule="evenodd" clip-rule="evenodd" d="M398.801 115.663C398.759 116.482 398.816 116.827 398.314 117.406C397.832 118.138 397.083 118.653 396.227 118.841C394.163 118.811 392.174 118.071 390.594 116.747C389.976 116.34 389.462 115.792 389.094 115.15C388.726 114.507 388.515 113.786 388.477 113.046C388.391 112.183 388.486 111.312 388.755 110.487C389.024 109.662 389.462 108.901 390.041 108.254C390.554 107.559 391.271 107.04 392.092 106.77C392.913 106.499 393.796 106.491 394.621 106.746C396.339 107.147 397.954 107.899 399.366 108.955C399.879 109.387 400.278 109.938 400.531 110.559C400.783 111.181 400.881 111.854 400.817 112.522C400.853 113.831 400.578 115.791 398.801 115.663Z" fill="white"/>
<path fill-rule="evenodd" clip-rule="evenodd" d="M385.696 109.176C386.065 108.87 386.512 108.5 386.323 108.036C386.046 107.664 385.695 107.355 385.292 107.127C384.889 106.899 384.442 106.757 383.981 106.71C383.287 106.699 382.612 106.935 382.075 107.375C381.816 107.781 381.707 108.264 381.766 108.741C381.797 109.086 381.932 109.413 382.152 109.679C382.373 109.946 382.669 110.139 383.002 110.233C383.469 110.401 384.554 110.841 384.927 110.303L385.696 109.176Z" fill="white"/>
<path fill-rule="evenodd" clip-rule="evenodd" d="M460.434 100.162C459.92 100.71 459.237 101.07 458.494 101.181C457.14 101.346 455.767 101.213 454.47 100.792C452.738 100.317 451.209 99.2906 450.115 97.8675C449.831 97.2823 449.722 96.627 449.803 95.9807C449.883 95.3344 450.149 94.7247 450.568 94.2252C451.708 93.0631 453.221 92.3412 454.84 92.1875C456.268 92.1024 457.694 92.3578 459.002 92.9326C460.31 93.5074 461.461 94.3852 462.362 95.4934C464.312 98.1238 460.629 101.307 460.434 100.162Z" fill="white"/>
<path fill-rule="evenodd" clip-rule="evenodd" d="M442.627 96.6575C443.099 96.7323 443.582 96.6716 444.021 96.4823C443.891 95.9695 444.202 95.5153 444.001 94.996C443.873 94.7119 443.683 94.4595 443.447 94.2565C443.21 94.0535 442.932 93.9048 442.631 93.8208C442.331 93.7368 442.015 93.7196 441.707 93.7703C441.399 93.821 441.105 93.9385 440.847 94.1144C440.187 94.6615 440.247 94.9711 440.389 95.7354C440.531 96.4997 440.502 96.4255 441.111 96.6069C441.501 96.7506 441.905 96.8539 442.316 96.915L442.627 96.6575Z" fill="white"/>
</g>
<path fill-rule="evenodd" clip-rule="evenodd" d="M221.72 417.689C219.778 419.299 219.029 421.912 220.249 423.384C221.469 424.856 224.176 424.605 226.118 422.996C228.059 421.387 228.828 418.757 227.608 417.285C226.388 415.814 223.836 415.936 221.72 417.689Z" fill="url(#paint26_linear_4_11)"/>
<path d="M221.103 422.676C220.146 421.521 220.665 419.511 222.263 418.187C223.861 416.863 225.932 416.726 226.889 417.881C227.847 419.036 227.328 421.046 225.73 422.37C224.132 423.694 222.061 423.831 221.103 422.676Z" fill="white"/>
<path fill-rule="evenodd" clip-rule="evenodd" d="M141.595 305.198C141.15 305.783 140.877 306.481 140.81 307.212C140.743 307.943 140.883 308.678 141.215 309.332C141.547 309.986 142.057 310.533 142.686 310.909C143.316 311.286 144.039 311.477 144.774 311.461C145.508 311.445 146.223 311.223 146.838 310.819C147.452 310.415 147.941 309.847 148.247 309.179C148.554 308.511 148.665 307.771 148.57 307.043C148.475 306.316 148.176 305.63 147.708 305.065C146.875 304.287 145.769 303.866 144.628 303.891C143.486 303.916 142.398 304.385 141.595 305.198Z" fill="url(#paint27_linear_4_11)"/>
<path fill-rule="evenodd" clip-rule="evenodd" d="M142.045 305.741C141.691 306.2 141.474 306.749 141.419 307.324C141.364 307.9 141.472 308.48 141.732 308.996C141.992 309.512 142.392 309.944 142.887 310.242C143.382 310.541 143.952 310.693 144.53 310.682C145.109 310.671 145.673 310.496 146.157 310.179C146.642 309.862 147.028 309.415 147.27 308.889C147.512 308.363 147.601 307.78 147.526 307.206C147.451 306.633 147.216 306.093 146.848 305.648C146.196 305.031 145.328 304.695 144.43 304.712C143.531 304.729 142.675 305.099 142.045 305.741Z" fill="white"/>
<path fill-rule="evenodd" clip-rule="evenodd" d="M183.215 354.273C182.485 354.878 181.951 355.685 181.679 356.592C181.408 357.499 181.411 358.465 181.689 359.369C181.967 360.273 182.507 361.073 183.241 361.669C183.975 362.265 184.87 362.629 185.812 362.717C186.755 362.804 187.702 362.609 188.536 362.158C189.369 361.707 190.05 361.02 190.494 360.182C190.937 359.345 191.122 358.396 191.026 357.455C190.93 356.514 190.557 355.623 189.954 354.895C189.145 353.919 187.98 353.306 186.717 353.189C185.453 353.072 184.193 353.462 183.215 354.273Z" fill="url(#paint28_linear_4_11)"/>
<path d="M183.371 360.351C182.05 358.757 182.275 356.392 183.873 355.067C185.471 353.743 187.837 353.962 189.157 355.556C190.478 357.149 190.253 359.515 188.656 360.839C187.058 362.163 184.692 361.944 183.371 360.351Z" fill="white"/>
<path style="mix-blend-mode:screen" d="M159.575 370.781C153.042 356.874 159.039 340.278 172.969 333.714C186.899 327.149 203.488 333.101 210.021 347.009C216.554 360.916 210.557 377.511 196.627 384.076C182.697 390.641 166.108 384.689 159.575 370.781Z" fill="url(#paint29_radial_4_11)"/>
<path style="mix-blend-mode:screen" d="M141.982 299.618C139.973 300.292 138.208 301.546 136.91 303.221C135.612 304.896 134.839 306.917 134.688 309.028C134.538 311.139 135.017 313.246 136.065 315.082C137.113 316.918 138.683 318.401 140.576 319.344C142.47 320.286 144.601 320.645 146.702 320.376C148.803 320.107 150.778 319.222 152.378 317.832C153.978 316.443 155.132 314.611 155.692 312.569C156.253 310.527 156.195 308.366 155.527 306.36C154.625 303.672 152.693 301.453 150.155 300.189C147.616 298.925 144.677 298.72 141.982 299.618Z" fill="url(#paint30_radial_4_11)"/>
<path style="mix-blend-mode:screen" d="M221.962 411.739C219.953 412.413 218.187 413.666 216.886 415.34C215.585 417.013 214.807 419.033 214.652 421.145C214.496 423.256 214.968 425.365 216.01 427.206C217.052 429.046 218.615 430.537 220.505 431.488C222.394 432.44 224.525 432.811 226.628 432.555C228.731 432.298 230.712 431.426 232.323 430.047C233.933 428.668 235.101 426.845 235.679 424.807C236.256 422.769 236.218 420.607 235.569 418.594C235.137 417.243 234.441 415.993 233.521 414.915C232.6 413.838 231.474 412.954 230.208 412.317C228.942 411.679 227.561 411.299 226.145 411.2C224.73 411.101 223.308 411.284 221.962 411.739Z" fill="url(#paint31_radial_4_11)"/>
</g>
<defs>
<filter id="filter0_d_4_11" x="-59.5079" y="62.5077" width="608.135" height="539.215" filterUnits="userSpaceOnUse" color-interpolation-filters="sRGB">
<feFlood flood-opacity="0" result="BackgroundImageFix"/>
<feColorMatrix in="SourceAlpha" type="matrix" values="0 0 0 0 0 0 0 0 0 0 0 0 0 0 0 0 0 0 127 0" result="hardAlpha"/>
<feMorphology radius="1.56259" operator="dilate" in="SourceAlpha" result="effect1_dropShadow_4_11"/>
<feOffset dx="10.1569" dy="6.25037"/>
<feGaussianBlur stdDeviation="14.8446"/>
<feComposite in2="hardAlpha" operator="out"/>
<feColorMatrix type="matrix" values="0 0 0 0 1 0 0 0 0 0 0 0 0 0 0.54 0 0 0 1 0"/>
<feBlend mode="normal" in2="BackgroundImageFix" result="effect1_dropShadow_4_11"/>
<feBlend mode="normal" in="SourceGraphic" in2="effect1_dropShadow_4_11" result="shape"/>
</filter>
<linearGradient id="paint0_linear_4_11" x1="-48.8616" y1="443.568" x2="72.1046" y2="343.319" gradientUnits="userSpaceOnUse">
<stop stop-color="#A43440"/>
<stop offset="1" stop-color="#C73634"/>
</linearGradient>
<linearGradient id="paint1_linear_4_11" x1="61.6392" y1="576.906" x2="182.605" y2="476.657" gradientUnits="userSpaceOnUse">
<stop stop-color="#A43440"/>
<stop offset="1" stop-color="#C73634"/>
</linearGradient>
<radialGradient id="paint2_radial_4_11" cx="0" cy="0" r="1" gradientUnits="userSpaceOnUse" gradientTransform="translate(331.651 205.738) rotate(-129.65) scale(175.069 321.545)">
<stop stop-color="#F4BAB3"/>
<stop offset="0.77" stop-color="#8D6FC7"/>
<stop offset="0.96" stop-color="#B695E5"/>
</radialGradient>
<radialGradient id="paint3_radial_4_11" cx="0" cy="0" r="1" gradientUnits="userSpaceOnUse" gradientTransform="translate(487.342 111.871) rotate(-129.65) scale(47.2383 43.0966)">
<stop offset="0.02" stop-color="#AB5E75"/>
<stop offset="0.25" stop-color="#9F577B"/>
<stop offset="0.67" stop-color="#7F458C"/>
<stop offset="0.99" stop-color="#61349C"/>
</radialGradient>
<linearGradient id="paint4_linear_4_11" x1="491.183" y1="110.353" x2="506.29" y2="97.8343" gradientUnits="userSpaceOnUse">
<stop stop-color="#FFFF18"/>
<stop offset="1" stop-color="#FF7400"/>
</linearGradient>
<radialGradient id="paint5_radial_4_11" cx="0" cy="0" r="1" gradientUnits="userSpaceOnUse" gradientTransform="translate(177.328 370.618) rotate(-129.65) scale(83.4594 153.958)">
<stop offset="0.02" stop-color="#8881BC"/>
<stop offset="0.29" stop-color="#8375B7"/>
<stop offset="0.77" stop-color="#7555AA"/>
<stop offset="0.99" stop-color="#6D43A3"/>
</radialGradient>
<radialGradient id="paint6_radial_4_11" cx="0" cy="0" r="1" gradientUnits="userSpaceOnUse" gradientTransform="translate(357.342 220.912) rotate(-129.65) scale(88.7416 88.9683)">
<stop offset="0.02" stop-color="#8881BC"/>
<stop offset="0.29" stop-color="#8375B7"/>
<stop offset="0.77" stop-color="#7555AA"/>
<stop offset="0.99" stop-color="#6D43A3"/>
</radialGradient>
<radialGradient id="paint7_radial_4_11" cx="0" cy="0" r="1" gradientUnits="userSpaceOnUse" gradientTransform="translate(426.188 166.027) rotate(-129.65) scale(110.62 185.51)">
<stop offset="0.02" stop-color="#725EB0"/>
<stop offset="0.38" stop-color="#6D52AA"/>
<stop offset="0.99" stop-color="#61349C"/>
</radialGradient>
<linearGradient id="paint8_linear_4_11" x1="314.257" y1="255.671" x2="419.923" y2="168.103" gradientUnits="userSpaceOnUse">
<stop stop-color="#FFFF97"/>
<stop offset="1" stop-color="#FF7E59"/>
</linearGradient>
<radialGradient id="paint9_radial_4_11" cx="0" cy="0" r="1" gradientUnits="userSpaceOnUse" gradientTransform="translate(77.1124 451.775) rotate(-129.65) scale(32.8002 60.5064)">
<stop offset="0.02" stop-color="#725EB0"/>
<stop offset="0.38" stop-color="#6D52AA"/>
<stop offset="0.99" stop-color="#61349C"/>
</radialGradient>
<radialGradient id="paint10_radial_4_11" cx="0" cy="0" r="1" gradientUnits="userSpaceOnUse" gradientTransform="translate(445.692 146.714) rotate(-129.65) scale(60.4188 60.5732)">
<stop offset="0.02" stop-color="#8881BC"/>
<stop offset="0.29" stop-color="#8375B7"/>
<stop offset="0.77" stop-color="#7555AA"/>
<stop offset="0.99" stop-color="#6D43A3"/>
</radialGradient>
<linearGradient id="paint11_linear_4_11" x1="223.955" y1="336.485" x2="230.324" y2="331.207" gradientUnits="userSpaceOnUse">
<stop stop-color="#8DC7FF"/>
<stop offset="0.32" stop-color="#5C4D86"/>
</linearGradient>
<radialGradient id="paint12_radial_4_11" cx="0" cy="0" r="1" gradientUnits="userSpaceOnUse" gradientTransform="translate(227.997 332.352) rotate(-129.65) scale(3.24481 3.2531)">
<stop offset="0.02" stop-color="#8881BC"/>
<stop offset="0.29" stop-color="#8375B7"/>
<stop offset="0.77" stop-color="#7555AA"/>
<stop offset="1" stop-color="#6D43A3"/>
</radialGradient>
<linearGradient id="paint13_linear_4_11" x1="239.683" y1="323.451" x2="246.052" y2="318.173" gradientUnits="userSpaceOnUse">
<stop stop-color="#8DC7FF"/>
<stop offset="0.32" stop-color="#5C4D86"/>
</linearGradient>
<radialGradient id="paint14_radial_4_11" cx="0" cy="0" r="1" gradientUnits="userSpaceOnUse" gradientTransform="translate(243.724 319.318) rotate(-129.65) scale(3.24481 3.2531)">
<stop offset="0.02" stop-color="#8881BC"/>
<stop offset="0.29" stop-color="#8375B7"/>
<stop offset="0.77" stop-color="#7555AA"/>
<stop offset="1" stop-color="#6D43A3"/>
</radialGradient>
<radialGradient id="paint15_radial_4_11" cx="0" cy="0" r="1" gradientUnits="userSpaceOnUse" gradientTransform="translate(394.343 282.831) rotate(-129.65) scale(3.24481 3.2531)">
<stop stop-color="#F4BAB3"/>
<stop offset="1" stop-color="#8D6FC7"/>
</radialGradient>
<radialGradient id="paint16_radial_4_11" cx="0" cy="0" r="1" gradientUnits="userSpaceOnUse" gradientTransform="translate(434.845 239.857) rotate(-129.65) scale(3.24481 3.2531)">
<stop stop-color="#F4BAB3"/>
<stop offset="1" stop-color="#8D6FC7"/>
</radialGradient>
<radialGradient id="paint17_radial_4_11" cx="0" cy="0" r="1" gradientUnits="userSpaceOnUse" gradientTransform="translate(334.025 282.607) rotate(-129.65) scale(3.2448 3.2531)">
<stop stop-color="#F4BAB3"/>
<stop offset="1" stop-color="#8D6FC7"/>
</radialGradient>
<radialGradient id="paint18_radial_4_11" cx="0" cy="0" r="1" gradientUnits="userSpaceOnUse" gradientTransform="translate(289.384 236.526) rotate(-129.65) scale(3.24479 3.2531)">
<stop stop-color="#F4BAB3"/>
<stop offset="1" stop-color="#8D6FC7"/>
</radialGradient>
<radialGradient id="paint19_radial_4_11" cx="0" cy="0" r="1" gradientUnits="userSpaceOnUse" gradientTransform="translate(291.492 178.524) rotate(-129.65) scale(3.2448 3.2531)">
<stop stop-color="#F4BAB3"/>
<stop offset="1" stop-color="#8D6FC7"/>
</radialGradient>
<radialGradient id="paint20_radial_4_11" cx="0" cy="0" r="1" gradientUnits="userSpaceOnUse" gradientTransform="translate(352.232 136.812) rotate(-129.65) scale(3.24481 3.25311)">
<stop stop-color="#F4BAB3"/>
<stop offset="1" stop-color="#8D6FC7"/>
</radialGradient>
<radialGradient id="paint21_radial_4_11" cx="0" cy="0" r="1" gradientUnits="userSpaceOnUse" gradientTransform="translate(402.145 137.72) rotate(-129.65) scale(3.24481 3.25311)">
<stop stop-color="#F4BAB3"/>
<stop offset="1" stop-color="#8D6FC7"/>
</radialGradient>
<radialGradient id="paint22_radial_4_11" cx="0" cy="0" r="1" gradientUnits="userSpaceOnUse" gradientTransform="translate(441.682 176.14) rotate(-129.65) scale(3.2448 3.25302)">
<stop stop-color="#F4BAB3"/>
<stop offset="1" stop-color="#8D6FC7"/>
</radialGradient>
<linearGradient id="paint23_linear_4_11" x1="25.55" y1="455.174" x2="159.972" y2="343.774" gradientUnits="userSpaceOnUse">
<stop stop-color="#A43411"/>
<stop offset="1" stop-color="#C73634"/>
</linearGradient>
<linearGradient id="paint24_linear_4_11" x1="304.795" y1="117.549" x2="298.198" y2="109.589" gradientUnits="userSpaceOnUse">
<stop stop-color="#FFFF18"/>
<stop offset="1" stop-color="#FF7400"/>
</linearGradient>
<linearGradient id="paint25_linear_4_11" x1="455.948" y1="295.514" x2="449.768" y2="288.058" gradientUnits="userSpaceOnUse">
<stop stop-color="#FFFF18"/>
<stop offset="1" stop-color="#FF7400"/>
</linearGradient>
<linearGradient id="paint26_linear_4_11" x1="220.327" y1="423.32" x2="227.686" y2="417.221" gradientUnits="userSpaceOnUse">
<stop stop-color="#8DC7FF"/>
<stop offset="0.32" stop-color="#5C4D86"/>
</linearGradient>
<linearGradient id="paint27_linear_4_11" x1="140.246" y1="311.119" x2="147.625" y2="305.004" gradientUnits="userSpaceOnUse">
<stop stop-color="#8DC7FF"/>
<stop offset="0.32" stop-color="#5C4D86"/>
</linearGradient>
<linearGradient id="paint28_linear_4_11" x1="182.575" y1="361.01" x2="189.954" y2="354.895" gradientUnits="userSpaceOnUse">
<stop stop-color="#8DC7FF"/>
<stop offset="0.32" stop-color="#5C4D86"/>
</linearGradient>
<radialGradient id="paint29_radial_4_11" cx="0" cy="0" r="1" gradientUnits="userSpaceOnUse" gradientTransform="translate(184.584 359.357) rotate(-108.688) scale(27.7879 27.8407)">
<stop stop-color="#003CEE"/>
<stop offset="0.06" stop-color="#0036D6"/>
<stop offset="0.2" stop-color="#00289E"/>
<stop offset="0.34" stop-color="#001C6D"/>
<stop offset="0.48" stop-color="#001246"/>
<stop offset="0.62" stop-color="#000A27"/>
<stop offset="0.75" stop-color="#000412"/>
<stop offset="0.88" stop-color="#000104"/>
<stop offset="1"/>
</radialGradient>
<radialGradient id="paint30_radial_4_11" cx="0" cy="0" r="1" gradientUnits="userSpaceOnUse" gradientTransform="translate(145.189 310.273) rotate(-108.42) scale(10.6895 10.7097)">
<stop stop-color="#003CEE"/>
<stop offset="0.06" stop-color="#0036D6"/>
<stop offset="0.2" stop-color="#00289E"/>
<stop offset="0.34" stop-color="#001C6D"/>
<stop offset="0.48" stop-color="#001246"/>
<stop offset="0.62" stop-color="#000A27"/>
<stop offset="0.75" stop-color="#000412"/>
<stop offset="0.88" stop-color="#000104"/>
<stop offset="1"/>
</radialGradient>
<radialGradient id="paint31_radial_4_11" cx="0" cy="0" r="1" gradientUnits="userSpaceOnUse" gradientTransform="translate(225.192 422.421) rotate(-108.42) scale(10.6895 10.7097)">
<stop stop-color="#003CEE"/>
<stop offset="0.06" stop-color="#0036D6"/>
<stop offset="0.2" stop-color="#00289E"/>
<stop offset="0.34" stop-color="#001C6D"/>
<stop offset="0.48" stop-color="#001246"/>
<stop offset="0.62" stop-color="#000A27"/>
<stop offset="0.75" stop-color="#000412"/>
<stop offset="0.88" stop-color="#000104"/>
<stop offset="1"/>
</radialGradient>
</defs>
</svg>
